<?xml version="1.0" standalone="no"?>
<!DOCTYPE svg PUBLIC "-//W3C//DTD SVG 20010904//EN"
 "http://www.w3.org/TR/2001/REC-SVG-20010904/DTD/svg10.dtd">
<svg version="1.0" xmlns="http://www.w3.org/2000/svg"
 width="1280.000000pt" height="1280.000000pt" viewBox="0 0 1280.000000 1280.000000"
 preserveAspectRatio="xMidYMid meet">
<metadata>
Created by potrace 1.15, written by Peter Selinger 2001-2017
</metadata>
<g transform="translate(0.000000,1280.000000) scale(0.100000,-0.100000)"
fill="#795548" stroke="none">
<path d="M6367 12657 c-60 -257 -117 -531 -143 -683 -31 -184 -34 -289 -20
-749 7 -258 6 -317 -8 -420 -31 -219 -38 -198 -55 155 -17 332 -26 384 -146
770 -71 229 -90 275 -81 200 3 -25 10 -157 16 -295 12 -277 5 -406 -31 -587
l-22 -110 -24 59 c-14 32 -85 182 -158 333 -187 384 -238 546 -364 1164 -34
167 -39 184 -44 145 -14 -98 -29 -627 -24 -819 6 -224 11 -259 86 -585 28
-121 57 -265 65 -320 16 -109 32 -375 22 -375 -10 0 -54 160 -91 335 -55 256
-83 332 -231 625 -122 242 -179 344 -159 285 12 -36 95 -406 116 -519 15 -77
23 -170 26 -301 l5 -190 -79 115 c-44 63 -121 171 -173 240 -234 312 -330 501
-575 1122 -32 81 -60 147 -61 145 -7 -6 81 -633 112 -805 41 -224 64 -296 199
-613 48 -112 102 -249 120 -304 34 -101 89 -344 81 -352 -8 -8 -62 107 -141
298 -93 225 -124 284 -228 431 -93 133 -317 425 -317 414 0 -4 23 -60 51 -124
164 -376 213 -526 253 -769 l13 -81 -239 231 c-132 128 -280 279 -330 337 -92
108 -325 450 -484 712 -49 81 -90 145 -92 143 -8 -7 174 -575 245 -765 71
-189 129 -299 295 -556 75 -116 157 -249 181 -295 47 -87 150 -329 143 -336
-6 -7 -100 126 -192 272 -124 197 -154 236 -268 354 -106 109 -432 412 -425
396 2 -6 43 -68 90 -140 209 -319 288 -463 359 -664 l40 -113 -47 36 c-27 20
-149 104 -273 187 -247 167 -317 218 -432 322 -78 70 -323 330 -498 527 -51
58 -103 116 -117 130 -24 24 -24 23 5 -30 16 -30 73 -140 127 -245 261 -508
343 -631 610 -915 209 -222 310 -351 411 -525 l29 -50 -32 23 c-17 12 -109
106 -203 208 -95 102 -198 206 -229 232 -84 70 -568 392 -589 392 -3 0 35 -42
84 -92 174 -180 338 -369 402 -463 37 -55 152 -253 152 -261 0 -2 -48 20 -107
50 -60 29 -171 81 -248 114 -289 125 -364 164 -530 275 -112 75 -324 234 -515
385 -181 143 -178 141 -164 122 233 -320 495 -642 628 -775 79 -78 186 -169
306 -259 288 -216 383 -302 526 -475 l29 -35 -35 20 c-19 10 -125 87 -236 170
-237 178 -292 212 -479 295 -170 75 -427 180 -431 176 -1 -1 51 -42 117 -91
292 -215 461 -366 583 -521 30 -38 54 -70 53 -72 -2 -1 -32 7 -68 17 -35 11
-181 49 -324 84 -302 75 -410 110 -595 195 -123 57 -459 231 -639 330 -41 23
-76 41 -78 41 -14 0 406 -382 574 -522 174 -146 274 -212 478 -315 237 -120
358 -187 445 -246 81 -55 241 -180 236 -184 -6 -7 -152 61 -298 138 -181 95
-255 128 -363 162 -98 30 -606 149 -612 143 -1 -1 78 -42 175 -91 214 -109
393 -211 470 -267 72 -53 222 -181 217 -186 -2 -2 -45 1 -97 7 -51 6 -172 15
-268 21 -318 19 -456 38 -640 87 -137 36 -387 113 -594 183 -99 33 -181 58
-183 56 -4 -4 250 -169 432 -281 393 -243 410 -251 995 -437 150 -47 409 -163
475 -212 33 -24 -83 4 -320 79 -115 36 -248 72 -295 80 -102 17 -303 32 -535
40 l-170 5 100 -30 c436 -135 561 -183 734 -283 l123 -72 -83 -8 c-46 -4 -192
-19 -324 -34 -307 -34 -526 -35 -779 -4 -219 26 -604 80 -631 88 -96 27 253
-124 580 -250 309 -120 404 -144 759 -188 300 -37 406 -58 571 -115 l130 -44
-100 4 c-55 3 -188 17 -295 31 -253 35 -308 32 -842 -37 -93 -11 -132 -28 -68
-28 46 0 401 -47 530 -70 108 -20 289 -74 390 -117 l45 -20 -75 -18 c-41 -10
-174 -47 -294 -82 -439 -129 -536 -142 -1271 -169 l-180 -7 120 -28 c214 -51
536 -118 690 -145 176 -30 309 -34 750 -20 254 8 306 7 420 -9 72 -9 136 -20
144 -25 19 -10 -63 -19 -299 -30 -246 -12 -289 -16 -401 -40 -127 -28 -609
-176 -609 -187 0 -3 19 -3 43 1 23 3 155 10 292 16 278 11 410 4 586 -31 l111
-22 -59 -24 c-32 -14 -182 -85 -333 -158 -384 -187 -535 -234 -1144 -359 -184
-38 -203 -44 -165 -49 98 -14 627 -29 819 -24 225 6 259 11 587 86 122 28 269
58 325 65 114 16 368 31 368 22 0 -10 -135 -47 -339 -92 -113 -25 -232 -55
-265 -66 -99 -33 -665 -313 -654 -323 2 -2 28 3 58 11 85 23 395 91 495 109
52 10 169 19 280 22 l190 5 -115 -79 c-63 -44 -171 -121 -240 -173 -311 -233
-523 -342 -1123 -576 -81 -31 -146 -58 -145 -60 4 -3 409 49 588 76 385 57
467 81 831 235 112 48 249 102 304 120 101 34 344 89 352 81 8 -8 -106 -62
-294 -140 -225 -92 -273 -117 -405 -208 -117 -80 -448 -331 -443 -336 2 -2 56
20 122 48 377 165 527 214 770 254 l81 13 -236 -244 c-248 -255 -351 -349
-492 -450 -108 -78 -395 -264 -567 -368 -72 -44 -130 -81 -128 -83 4 -4 363
107 578 179 327 109 432 160 744 362 116 75 249 156 295 181 86 46 328 149
335 142 7 -6 -126 -100 -272 -192 -197 -124 -236 -154 -354 -268 -108 -106
-412 -432 -396 -425 6 2 69 43 140 90 316 208 463 288 664 359 l113 40 -36
-47 c-20 -27 -89 -127 -153 -223 -169 -252 -235 -343 -330 -452 -80 -92 -329
-330 -553 -528 -164 -144 -167 -148 -90 -107 36 19 144 75 240 124 504 259
626 341 920 618 210 198 343 301 515 401 l50 29 -23 -32 c-12 -17 -106 -109
-208 -203 -102 -95 -206 -198 -232 -229 -71 -85 -392 -568 -392 -589 0 -4 39
32 88 79 180 177 400 366 497 427 47 30 226 132 231 132 2 0 -20 -48 -50 -107
-30 -60 -73 -153 -96 -208 -178 -420 -271 -570 -678 -1085 -143 -181 -141
-178 -122 -164 319 233 642 494 775 628 79 79 169 185 259 306 216 287 304
385 476 526 l34 29 -24 -40 c-36 -61 -55 -88 -182 -252 -151 -198 -193 -267
-274 -448 -77 -173 -185 -437 -181 -441 1 -1 42 51 91 117 215 292 366 461
521 583 38 30 70 54 72 53 1 -2 -7 -32 -17 -68 -11 -35 -49 -181 -84 -324 -70
-283 -100 -378 -166 -530 -50 -116 -214 -439 -324 -640 -42 -76 -76 -140 -76
-142 0 -13 405 432 535 588 137 164 191 250 332 522 128 249 171 325 233 412
48 70 164 215 167 211 7 -7 -61 -153 -143 -307 -96 -182 -121 -239 -157 -354
-30 -97 -149 -606 -143 -612 1 -1 42 78 91 175 109 214 211 393 267 470 53 72
181 222 186 217 2 -2 -1 -45 -7 -97 -6 -51 -15 -172 -21 -268 -19 -318 -38
-456 -87 -640 -36 -137 -113 -387 -183 -594 -33 -99 -58 -181 -56 -183 2 -2
26 31 53 74 476 742 460 711 665 1353 47 150 163 409 212 475 24 33 -4 -83
-79 -320 -36 -115 -72 -248 -80 -295 -17 -102 -33 -304 -40 -535 l-6 -170 50
160 c122 394 164 501 264 674 l72 123 8 -83 c4 -46 19 -192 34 -324 34 -305
35 -523 4 -780 -23 -195 -78 -584 -88 -625 -19 -82 57 91 207 466 99 249 161
432 185 548 9 44 29 188 46 320 37 300 58 406 115 571 l44 130 -4 -100 c-3
-55 -17 -188 -31 -295 -35 -253 -32 -308 37 -843 6 -53 15 -97 18 -97 3 0 14
73 24 163 39 355 93 599 173 787 l20 45 18 -75 c10 -41 42 -158 72 -260 108
-366 133 -490 153 -750 8 -109 27 -544 31 -700 1 -64 124 481 175 775 30 176
34 309 20 750 -8 254 -7 306 9 420 9 72 20 136 25 144 10 19 19 -63 30 -299
12 -246 16 -289 40 -401 28 -127 176 -609 187 -609 3 0 3 19 -1 42 -3 24 -10
156 -16 293 -11 278 -4 410 31 586 l22 111 24 -59 c14 -32 85 -182 158 -333
187 -384 238 -548 364 -1164 34 -169 39 -185 44 -145 14 97 29 626 24 819 -6
224 -11 259 -86 585 -61 265 -77 375 -85 560 -5 130 -4 138 10 107 16 -36 42
-138 98 -389 45 -199 74 -273 228 -576 112 -219 161 -307 143 -252 -12 36 -95
406 -116 519 -15 77 -23 170 -26 301 l-5 190 79 -115 c44 -63 121 -171 173
-240 233 -311 342 -523 576 -1123 31 -81 58 -146 60 -145 6 7 -80 631 -112
806 -41 224 -64 296 -199 613 -48 112 -102 249 -120 304 -34 101 -89 344 -81
352 8 8 62 -106 140 -294 90 -220 113 -265 189 -378 85 -128 357 -485 357
-470 0 3 -23 59 -51 123 -164 376 -213 526 -253 769 l-13 81 244 -236 c244
-238 345 -348 440 -477 64 -88 279 -419 381 -587 42 -70 78 -125 80 -123 4 3
-100 337 -177 570 -109 330 -161 438 -363 751 -75 116 -157 249 -181 295 -47
87 -150 329 -143 336 6 7 100 -126 192 -272 124 -197 154 -236 268 -354 106
-108 432 -412 425 -396 -2 6 -43 69 -90 140 -208 316 -288 463 -359 664 l-40
113 47 -36 c27 -20 155 -108 286 -197 246 -166 300 -207 425 -318 74 -66 319
-326 492 -521 51 -58 103 -116 117 -130 24 -24 24 -23 -5 30 -16 30 -73 140
-127 245 -261 508 -343 631 -610 915 -209 222 -310 351 -411 525 l-29 49 38
-28 c20 -16 112 -109 203 -208 190 -205 237 -246 419 -368 161 -108 384 -250
393 -250 3 0 -35 42 -84 93 -174 179 -338 368 -402 462 -37 55 -152 252 -152
261 0 2 48 -20 108 -50 59 -30 172 -82 252 -116 371 -158 556 -275 1040 -658
181 -143 178 -141 164 -122 -233 319 -494 642 -628 776 -80 79 -183 166 -301
255 -283 211 -398 315 -540 488 l-20 25 40 -24 c62 -37 90 -57 235 -169 192
-149 283 -205 456 -283 171 -76 446 -190 450 -185 1 1 -51 42 -117 91 -173
127 -354 274 -431 350 -66 64 -210 237 -204 243 1 2 22 -4 46 -12 23 -8 169
-46 325 -85 307 -76 397 -104 550 -170 116 -50 439 -214 640 -324 76 -42 140
-76 142 -76 13 0 -432 405 -588 535 -164 137 -250 191 -522 332 -249 128 -325
171 -412 233 -70 48 -215 164 -211 167 7 7 153 -61 307 -143 184 -97 252 -127
360 -159 101 -31 600 -147 606 -141 1 1 -78 42 -175 91 -214 109 -393 211
-470 267 -72 53 -222 181 -217 186 2 2 45 -1 97 -7 51 -6 172 -15 268 -21 318
-19 456 -38 640 -87 137 -36 387 -113 594 -183 99 -33 181 -58 183 -56 4 4
-266 179 -452 293 -385 237 -389 238 -975 425 -150 47 -409 163 -475 212 -33
24 83 -4 320 -79 116 -36 248 -72 295 -80 90 -16 502 -45 630 -45 l75 1 -160
49 c-381 116 -500 162 -674 263 l-123 72 88 8 c49 4 193 18 319 32 326 35 411
38 575 25 159 -12 526 -58 721 -89 121 -20 155 -20 108 -2 -13 5 -95 39 -183
76 -404 170 -675 268 -830 300 -44 9 -188 29 -320 46 -326 40 -492 76 -661
143 -40 16 -39 16 60 12 55 -3 188 -17 295 -31 253 -35 308 -32 843 37 92 11
131 28 67 28 -57 0 -437 51 -556 75 -112 23 -259 68 -364 113 l-45 19 75 18
c41 10 174 47 294 82 437 128 530 140 1281 169 l170 7 -120 28 c-219 52 -538
119 -685 143 -203 34 -316 40 -539 26 -268 -15 -501 -14 -645 5 -66 9 -128 19
-136 22 -26 11 68 21 295 32 255 13 291 16 405 41 134 30 610 175 610 187 0 3
-19 3 -42 -1 -24 -3 -155 -10 -293 -16 -277 -12 -406 -5 -587 31 l-110 22 59
24 c32 14 182 85 333 158 384 187 548 238 1164 364 169 34 185 39 145 44 -97
14 -626 29 -819 24 -224 -6 -259 -11 -585 -86 -121 -28 -265 -57 -320 -65
-108 -15 -375 -32 -375 -22 0 10 134 47 339 92 113 25 232 55 265 66 99 33
665 313 654 323 -2 2 -28 -3 -58 -11 -85 -23 -395 -91 -495 -109 -52 -10 -169
-19 -280 -22 l-190 -5 115 79 c63 44 171 121 240 173 312 234 481 320 1097
565 95 38 172 70 170 71 -6 7 -680 -88 -837 -117 -188 -36 -284 -68 -581 -194
-112 -48 -249 -102 -304 -120 -101 -34 -344 -89 -352 -81 -8 8 106 62 294 140
225 92 273 117 405 208 111 76 448 331 443 336 -1 1 -56 -21 -121 -49 -397
-170 -528 -213 -771 -253 l-81 -13 236 244 c238 244 348 345 477 440 88 64
419 279 587 381 70 42 125 78 123 80 -4 4 -368 -109 -580 -180 -330 -111 -430
-159 -742 -361 -116 -75 -249 -156 -295 -181 -82 -44 -328 -149 -334 -143 -7
7 134 107 271 193 196 124 236 154 354 268 108 106 412 432 396 425 -6 -2 -68
-43 -140 -90 -316 -208 -463 -288 -664 -359 l-113 -40 36 47 c20 27 108 155
197 286 169 250 208 303 323 430 75 83 326 319 539 507 70 61 127 113 127 115
0 10 -582 -299 -737 -391 -188 -112 -262 -170 -503 -398 -187 -177 -323 -282
-495 -382 l-49 -29 28 38 c16 20 109 112 208 203 205 190 246 237 368 419 110
165 250 384 250 393 0 4 -42 -34 -92 -84 -167 -163 -367 -337 -463 -402 -55
-37 -252 -152 -261 -152 -2 0 18 44 45 98 27 53 81 171 121 262 166 385 273
554 658 1040 143 181 141 178 122 164 -319 -233 -642 -494 -775 -628 -80 -79
-166 -182 -252 -298 -211 -283 -307 -389 -482 -534 l-34 -28 24 42 c22 39 59
89 249 339 90 117 134 194 211 368 74 169 180 427 176 431 -1 1 -42 -51 -91
-117 -216 -294 -366 -461 -521 -583 -38 -30 -70 -54 -72 -53 -1 2 7 32 18 68
11 35 48 181 84 324 72 295 109 407 196 596 55 122 228 456 328 638 23 41 41
76 41 78 0 13 -405 -432 -535 -588 -137 -164 -191 -250 -332 -522 -128 -249
-171 -325 -233 -412 -48 -70 -164 -215 -167 -211 -7 7 61 153 143 307 90 172
119 235 153 339 24 75 91 348 121 495 11 55 23 109 26 120 3 11 -43 -72 -102
-185 -122 -234 -200 -371 -257 -450 -51 -70 -180 -220 -185 -215 -2 2 1 45 7
97 6 51 15 172 21 268 19 318 38 456 87 640 36 137 113 387 183 594 33 99 58
181 56 183 -2 2 -26 -31 -53 -74 -28 -43 -91 -141 -140 -218 -140 -219 -241
-390 -304 -515 -55 -109 -76 -168 -220 -620 -48 -149 -164 -409 -213 -475 -24
-32 4 85 70 291 74 232 90 300 103 431 14 142 31 433 31 525 l-1 73 -49 -160
c-116 -381 -162 -500 -263 -674 l-72 -123 -8 88 c-4 49 -19 195 -34 324 -34
301 -35 520 -4 774 26 222 80 604 88 631 3 11 2 17 -2 13 -22 -21 -276 -652
-333 -829 -53 -162 -67 -235 -103 -523 -37 -300 -58 -406 -115 -571 l-44 -130
4 100 c3 55 17 188 31 295 35 253 32 308 -37 843 -6 53 -15 97 -18 97 -3 0
-15 -87 -28 -194 -40 -352 -73 -503 -149 -702 l-37 -99 -14 50 c-7 28 -38 138
-69 245 -149 520 -161 600 -184 1215 -6 165 -12 301 -12 302 -1 1 -15 -53 -30
-120z"/>
</g>
</svg>
